# xmcd
#
# Track frame offsets:
#	150
#	13703
#	26576
#	41191
#	54750
#	74059
#	87661
#	102205
#	116423
#	134485
#	149635
#	162272
#	174791
#	187614
#	199328
#	220941
#	240008
#	254275
#	268096
#	283773
#
# Disc length: 4016 seconds
#
# Revision: 0
# Processed by: cddbd v1.5.2PL0 Copyright (c) Steve Scherf et al.
# Submitted via: EasyCDDAExtractor 16.0.8.2
#
DISCID=230fae14
DTITLE=Συλλογικός δίσκος - Όλα τα ρεμπέτικα 14
DYEAR=2008
DGENRE=Ρεμπέτικη
TTITLE0=Μπέλλου Σωτηρία - Δώδεκα η ώρα [Β. Τσιτσάνης]
TTITLE1=Ιακωβίδης Αγάθωνας - Πέντε μάγκες στον Περαία [Γ. Εϊτζιρίδης ή Γιοβάν 
TTITLE1=Τσαούς]
TTITLE2=Γλυκερία - Κουκλάκι μου [Παν. Τούντας]
TTITLE3=Γκολές Μπάμπης - Σ' ένα απόκρημνο ακρογιάλι [Σ. Χρυσίνης-Χ. Βασιλειάδη
TTITLE3=ς]
TTITLE4=Δασκαλάκης Μιχάλης - Το δαχτυλίδι [Γ. Μητσάκης]
TTITLE5=Τσέρτος Μπάμπης - Τσάκα, τσούκα, σπάσ' τα [Κ. Σκαρβέλης]
TTITLE6=Κιουπρούλης Στέφανος ή Χοντρονάκος-Μαριώ - Αναστενάζει ο Γεντί Κουλές 
TTITLE6=[Σαρ. Κοτομάτης-Χ. Βασιλειάδης]
TTITLE7=Μπίνης Τάκης - Σαν δεν κοιτάς την τύφλα σου φιγουρατζή [Τ. Μπίνης]
TTITLE8=Χαλκιάς Θανάσης - Γιατί με ξύπνησες πρωΐ [Β. Τσιτσάνης]
TTITLE9=Τράμπα Νίκη - Το κορόϊδο [Μ. Βαμβακάρης]
TTITLE10=Δημητριανάκης Μανώλης - Πεισματάρα [Μ. Βαμβακάρης]
TTITLE11=Μουφλουζέλης Γιώργος - Ο ψαράς μέσα στη χώρα [Γ. Μουφλουζέλης]
TTITLE12=Ευσταθίου Δημήτρης - Το αλάνι σου κυρά μου [Δ. Ευσταθίου]
TTITLE13=Γενίτσαρης Μιχάλης - Στημένη μού την έχουν [Μ. Γενίτσαρης]
TTITLE14=Μαριώ - Τσακιτζής [παραδοσιακό]
TTITLE15=Άνευ ερμηνευτού - Καροτσέρης [ορχηστρ. Απόδημη Κομπανία]
TTITLE16=Κυριαζής Γιάννης - Τον Περικλή χτυπήσανε [Γ. Κυριαζής]
TTITLE17=Κεφάλας Στέλιος - Στο Τάγμα Τηλεγραφητών [Β. Τσιτσάνης]
TTITLE18=Χατζηχρήστος Απόστολος-Παπαϊωάννου Γιάννης - Εσούρωσα κι απόψε [Σ. Πε
TTITLE18=ριστέρης-Μ. Μάτσας]
TTITLE19=Μπέζος Κώστας ή Κωστής Α. - Στην θπόγα [Κ. Μπέζος-Θεόδοτος Δημητριάδη
TTITLE19=ς]
EXTD=
EXTT0=
EXTT1=
EXTT2=
EXTT3=
EXTT4=
EXTT5=
EXTT6=
EXTT7=
EXTT8=
EXTT9=
EXTT10=
EXTT11=
EXTT12=
EXTT13=
EXTT14=
EXTT15=
EXTT16=
EXTT17=
EXTT18=
EXTT19=
PLAYORDER=
